<svg width="1440" height="6705" viewBox="0 0 1440 6705" fill="none" xmlns="http://www.w3.org/2000/svg">
<g filter="url(#filter0_fn_61_168)">
<path d="M81 105C112.248 105 209.069 107.121 354.815 111.926C467.263 115.633 522.812 126.371 538.554 136.527C568.807 156.043 598.959 177.759 648.869 185.858C707.655 195.397 845.471 191.771 1031.78 188.59C1124.34 185.408 1212.87 179.045 1271.5 174.176C1330.13 169.307 1356.17 166.126 1383 162.848" stroke="#A259FF" stroke-width="47" stroke-linecap="round"/>
</g>
<g filter="url(#filter1_fn_61_168)">
<path d="M164.934 2470.7C167.052 2474.94 172.38 2483.48 179.329 2495.23C182.402 2500.42 183.1 2504.85 194.767 2498.56C206.433 2492.27 228.676 2475.33 262.376 2456.53C296.077 2437.74 340.561 2417.62 376.717 2404.6C412.872 2391.59 439.351 2386.29 477.353 2382.51C515.354 2378.72 564.075 2376.6 599.765 2377.63C656.858 2379.27 698.588 2397.85 741.259 2423.96C791.511 2454.71 817.502 2490.92 824.451 2511.74C830.819 2530.82 829.313 2549.79 827.195 2566.86C826.104 2575.65 820.84 2583.94 813.891 2589.36C785.427 2611.58 730.138 2592.73 658.388 2570.83C613.545 2557.14 581.342 2496.77 564.524 2446.78C561.561 2437.97 572.42 2430.2 587.874 2425.85C603.328 2421.5 627.688 2420.44 703.787 2429.96C779.886 2439.48 906.984 2459.6 980.403 2469.44C1069.34 2481.35 1100.91 2473.95 1127.61 2466.48C1165.56 2455.88 1183.33 2432.25 1236.72 2408.74C1264.47 2396.52 1284.94 2371.4 1306.4 2326.98C1325.52 2287.4 1320.38 2260 1318.79 2249.85C1318 2244.82 1314.02 2240.77 1309.74 2237.53C1305.45 2234.29 1300.16 2232.17 1292.13 2231.08C1284.11 2229.99 1273.52 2229.99 1262.6 2229.99" stroke="#A259FF" stroke-width="47" stroke-linecap="round"/>
</g>
<g filter="url(#filter2_fn_61_168)">
<path d="M1211.25 2936.09C1190.07 2936.09 1168.88 2936.09 1120.9 2938.21C1072.92 2940.33 998.778 2944.56 951.052 2948.86C883.989 2954.91 849.79 2967.06 805.081 2988.86C774.399 3003.81 730.715 3032.89 683.968 3067.73C637.221 3102.57 589.559 3143.88 557.062 3174.69C524.565 3205.5 508.678 3224.57 494.668 3246.57C480.658 3268.57 469.008 3292.93 460.887 3318.72C452.767 3344.51 448.531 3370.99 446.348 3399.45C444.166 3427.92 444.166 3457.58 448.932 3497.75C453.698 3537.92 463.23 3587.7 472.378 3619.7C485.586 3665.9 509.32 3685.97 541.785 3707.81C563.054 3722.12 596.491 3739.19 634.589 3757.47C672.686 3775.74 715.053 3793.75 744.821 3808.32C774.59 3822.89 790.477 3833.48 844.735 3879.19C898.993 3924.89 991.139 4005.39 1042.85 4052.15C1104.5 4107.91 1115.99 4128.89 1122.94 4145.44C1129.11 4160.13 1126.74 4188.69 1122.49 4226.06C1118.85 4258.02 1095.84 4288.21 1060.16 4326.6C1038.77 4349.61 1004.36 4373.46 932.902 4416.21C861.441 4458.96 752.348 4518.28 686.086 4556.25C619.825 4594.21 599.701 4609.04 576.095 4630.98C523.976 4679.41 496.61 4722.63 494.46 4758.82C493.004 4783.31 496.546 4820.42 500.285 4851.17C506.9 4905.57 522.19 4946.17 537.66 4976.62C554.189 4999.65 570.334 5012.64 588.981 5019.05C600.215 5022.27 615.043 5025.45 630.32 5028.72" stroke="#A259FF" stroke-width="47" stroke-linecap="round"/>
</g>
<g filter="url(#filter3_nf_61_168)">
<path d="M77.7995 1465.29C78.5324 1465.29 79.2654 1465.29 103.83 1463.82C128.396 1462.36 176.771 1459.43 248.967 1464.51C321.163 1469.6 415.714 1482.79 467.721 1490.69C526.513 1499.61 536.785 1503.78 542.705 1505.99C547.142 1507.65 546.447 1517.06 546.081 1525.94C545.831 1531.97 542.76 1536.34 538.707 1540.77C527.947 1552.54 510.244 1556.31 495.418 1563.36C481.187 1570.13 468.776 1572.63 445.954 1573.75C429.744 1574.53 404.076 1574.12 340.653 1571.92C277.23 1569.73 176.815 1565.33 122.887 1563.43C57.1313 1561.11 46.7488 1568.93 31.5899 1578.89C15.3449 1589.56 15.6092 1608.11 11.5558 1625.51C4.08263 1657.59 10.4119 1705.79 17.0529 1728.77C21.6257 1744.59 41.396 1767.93 70.5365 1801.53C86.3634 1819.77 107.74 1837.32 125.275 1850.79C142.81 1864.26 156.737 1872.32 177.837 1881.61C198.937 1890.89 226.789 1901.15 281.45 1908.27C336.111 1915.39 416.736 1919.06 507.745 1921.31C598.754 1923.57 697.703 1924.3 760.404 1923.21C823.105 1922.12 846.559 1919.19 862.307 1915.85C896.6 1901.4 908.439 1883.7 918.067 1870.31C921.032 1866.62 924.697 1861.49 932.915 1856.2" stroke="#A259FF" stroke-width="47" stroke-linecap="round"/>
</g>
<g filter="url(#filter4_fn_61_168)">
<path d="M1291.49 5195.62C1274.54 5235.87 1256.28 5276.73 1232.31 5314.1C1207.65 5352.54 1173.86 5359.31 1163.19 5357.19C1151 5354.77 1141.76 5325.29 1132.68 5282.6C1123.71 5240.45 1129.89 5206.44 1144.27 5186.14C1159.22 5165.02 1195.04 5163.56 1226 5161.39C1241.06 5160.34 1254.84 5167.7 1266.17 5177.31C1289.53 5197.13 1305.29 5238.18 1322.93 5282.49C1337.84 5319.96 1336.42 5350.64 1333.25 5371.46C1326.42 5416.16 1259.59 5421.32 1208.99 5428.27C1134.63 5438.48 1082.93 5431.01 1070.13 5422.51C1052.41 5410.74 1041.24 5381.91 1021.5 5357.35C979.861 5305.56 921.428 5293 884.036 5293.5C873.168 5293.64 862.693 5298.26 807.986 5303.61C753.279 5308.95 654.777 5316.37 597.679 5321.77C527.659 5328.41 486.179 5336.81 440.202 5343.21C422.694 5345.65 417.526 5349.62 388.319 5351.25C359.112 5352.89 306.155 5352.89 273.048 5351.83C228.201 5350.4 205.695 5341.18 185.94 5329.44C147.839 5306.82 139.289 5261.03 139.241 5236.45C139.204 5217.58 195.617 5215.97 253.855 5213.29C291.931 5211.54 325.219 5225.47 362.049 5249.46C399.429 5273.81 415.248 5304.65 420.062 5323.86C424.749 5342.56 419.581 5363.48 413.723 5383.24C375.93 5425.46 324.385 5463.07 291.487 5465.74C262.826 5467.34 209.868 5469.46 152.096 5478.06" stroke="#A259FF" stroke-width="47" stroke-linecap="round"/>
</g>
<g filter="url(#filter5_fn_61_168)">
<path d="M-5.17285 920.486C-0.93623 920.486 51.0266 934.255 133.336 958.824C181.009 973.055 205.471 993.15 227.889 1010.75C249.578 1027.79 264.366 1049.83 276.643 1077C293.282 1113.82 293.316 1163.1 292.257 1205.3C281.601 1260.54 269.79 1298.09 268.186 1319.88C267.64 1336.38 267.64 1363.92 267.64 1392.29" stroke="#A259FF" stroke-width="47" stroke-linecap="round"/>
</g>
<g filter="url(#filter6_fn_61_168)">
<path d="M1457.02 6482.99C1451.72 6441.49 1430.38 6368.79 1408.96 6334.39C1404.07 6326.55 1398.28 6318.4 1367.49 6290.21C1336.69 6262.01 1280.56 6214.35 1223.04 6175.5C1165.53 6136.65 1108.33 6108.05 1075.69 6092.79C1025.19 6069.18 986.498 6071.14 940.457 6070.02C928.586 6069.73 916.979 6073.19 884.498 6082.76C852.017 6092.32 799.06 6109.27 758.539 6124.35C690.561 6149.66 648.371 6175.84 616.885 6198.24C585.045 6220.89 558.471 6251.74 531.799 6283.23C504.725 6315.19 470.786 6341.64 421.278 6374.14C389.426 6395.05 341.055 6420.4 311.206 6436.16C271.311 6457.23 245.025 6464.76 196.079 6471.71C162.194 6476.52 109.004 6475.48 51.0072 6460.67C-6.9896 6445.86 -68.4206 6415.14 -113.836 6386.08C-159.251 6357.02 -186.789 6330.54 -203.094 6314.25C-219.398 6297.96 -223.635 6292.66 -228 6287.21" stroke="#A259FF" stroke-width="47" stroke-linecap="round"/>
</g>
<defs>
<filter id="filter0_fn_61_168" x="-274" y="-250" width="2012" height="797" filterUnits="userSpaceOnUse" color-interpolation-filters="sRGB">
<feFlood flood-opacity="0" result="BackgroundImageFix"/>
<feBlend mode="normal" in="SourceGraphic" in2="BackgroundImageFix" result="shape"/>
<feGaussianBlur stdDeviation="165.75" result="effect1_foregroundBlur_61_168"/>
<feTurbulence type="fractalNoise" baseFrequency="1 1" stitchTiles="stitch" numOctaves="3" result="noise" seed="8445" />
<feColorMatrix in="noise" type="luminanceToAlpha" result="alphaNoise" />
<feComponentTransfer in="alphaNoise" result="coloredNoise1">
<feFuncA type="discrete" tableValues="1 1 1 1 1 1 1 1 1 1 1 1 1 1 1 1 1 1 1 1 1 1 1 1 1 1 1 1 1 1 1 1 1 1 1 1 1 1 1 1 1 1 1 1 1 1 1 1 1 1 1 0 0 0 0 0 0 0 0 0 0 0 0 0 0 0 0 0 0 0 0 0 0 0 0 0 0 0 0 0 0 0 0 0 0 0 0 0 0 0 0 0 0 0 0 0 0 0 0 0 "/>
</feComponentTransfer>
<feComposite operator="in" in2="effect1_foregroundBlur_61_168" in="coloredNoise1" result="noise1Clipped" />
<feFlood flood-color="#000000" result="color1Flood" />
<feComposite operator="in" in2="noise1Clipped" in="color1Flood" result="color1" />
<feMerge result="effect2_noise_61_168">
<feMergeNode in="effect1_foregroundBlur_61_168" />
<feMergeNode in="color1" />
</feMerge>
</filter>
<filter id="filter1_fn_61_168" x="-190.071" y="1874.99" width="1865.69" height="1079.34" filterUnits="userSpaceOnUse" color-interpolation-filters="sRGB">
<feFlood flood-opacity="0" result="BackgroundImageFix"/>
<feBlend mode="normal" in="SourceGraphic" in2="BackgroundImageFix" result="shape"/>
<feGaussianBlur stdDeviation="165.75" result="effect1_foregroundBlur_61_168"/>
<feTurbulence type="fractalNoise" baseFrequency="1 1" stitchTiles="stitch" numOctaves="3" result="noise" seed="8445" />
<feColorMatrix in="noise" type="luminanceToAlpha" result="alphaNoise" />
<feComponentTransfer in="alphaNoise" result="coloredNoise1">
<feFuncA type="discrete" tableValues="1 1 1 1 1 1 1 1 1 1 1 1 1 1 1 1 1 1 1 1 1 1 1 1 1 1 1 1 1 1 1 1 1 1 1 1 1 1 1 1 1 1 1 1 1 1 1 1 1 1 1 0 0 0 0 0 0 0 0 0 0 0 0 0 0 0 0 0 0 0 0 0 0 0 0 0 0 0 0 0 0 0 0 0 0 0 0 0 0 0 0 0 0 0 0 0 0 0 0 0 "/>
</feComponentTransfer>
<feComposite operator="in" in2="effect1_foregroundBlur_61_168" in="coloredNoise1" result="noise1Clipped" />
<feFlood flood-color="#000000" result="color1Flood" />
<feComposite operator="in" in2="noise1Clipped" in="color1Flood" result="color1" />
<feMerge result="effect2_noise_61_168">
<feMergeNode in="effect1_foregroundBlur_61_168" />
<feMergeNode in="color1" />
</feMerge>
</filter>
<filter id="filter2_fn_61_168" x="89.942" y="2581.09" width="1476.31" height="2802.64" filterUnits="userSpaceOnUse" color-interpolation-filters="sRGB">
<feFlood flood-opacity="0" result="BackgroundImageFix"/>
<feBlend mode="normal" in="SourceGraphic" in2="BackgroundImageFix" result="shape"/>
<feGaussianBlur stdDeviation="165.75" result="effect1_foregroundBlur_61_168"/>
<feTurbulence type="fractalNoise" baseFrequency="1 1" stitchTiles="stitch" numOctaves="3" result="noise" seed="8445" />
<feColorMatrix in="noise" type="luminanceToAlpha" result="alphaNoise" />
<feComponentTransfer in="alphaNoise" result="coloredNoise1">
<feFuncA type="discrete" tableValues="1 1 1 1 1 1 1 1 1 1 1 1 1 1 1 1 1 1 1 1 1 1 1 1 1 1 1 1 1 1 1 1 1 1 1 1 1 1 1 1 1 1 1 1 1 1 1 1 1 1 1 0 0 0 0 0 0 0 0 0 0 0 0 0 0 0 0 0 0 0 0 0 0 0 0 0 0 0 0 0 0 0 0 0 0 0 0 0 0 0 0 0 0 0 0 0 0 0 0 0 "/>
</feComponentTransfer>
<feComposite operator="in" in2="effect1_foregroundBlur_61_168" in="coloredNoise1" result="noise1Clipped" />
<feFlood flood-color="#000000" result="color1Flood" />
<feComposite operator="in" in2="noise1Clipped" in="color1Flood" result="color1" />
<feMerge result="effect2_noise_61_168">
<feMergeNode in="effect1_foregroundBlur_61_168" />
<feMergeNode in="color1" />
</feMerge>
</filter>
<filter id="filter3_nf_61_168" x="-346.821" y="1106.64" width="1634.74" height="1172.06" filterUnits="userSpaceOnUse" color-interpolation-filters="sRGB">
<feFlood flood-opacity="0" result="BackgroundImageFix"/>
<feBlend mode="normal" in="SourceGraphic" in2="BackgroundImageFix" result="shape"/>
<feTurbulence type="fractalNoise" baseFrequency="1 1" stitchTiles="stitch" numOctaves="3" result="noise" seed="8445" />
<feColorMatrix in="noise" type="luminanceToAlpha" result="alphaNoise" />
<feComponentTransfer in="alphaNoise" result="coloredNoise1">
<feFuncA type="discrete" tableValues="1 1 1 1 1 1 1 1 1 1 1 1 1 1 1 1 1 1 1 1 1 1 1 1 1 1 1 1 1 1 1 1 1 1 1 1 1 1 1 1 1 1 1 1 1 1 1 1 1 1 1 0 0 0 0 0 0 0 0 0 0 0 0 0 0 0 0 0 0 0 0 0 0 0 0 0 0 0 0 0 0 0 0 0 0 0 0 0 0 0 0 0 0 0 0 0 0 0 0 0 "/>
</feComponentTransfer>
<feComposite operator="in" in2="shape" in="coloredNoise1" result="noise1Clipped" />
<feFlood flood-color="#000000" result="color1Flood" />
<feComposite operator="in" in2="noise1Clipped" in="color1Flood" result="color1" />
<feMerge result="effect1_noise_61_168">
<feMergeNode in="shape" />
<feMergeNode in="color1" />
</feMerge>
<feGaussianBlur stdDeviation="165.75" result="effect2_foregroundBlur_61_168"/>
</filter>
<filter id="filter4_fn_61_168" x="-215.759" y="4806.29" width="1906.07" height="1026.78" filterUnits="userSpaceOnUse" color-interpolation-filters="sRGB">
<feFlood flood-opacity="0" result="BackgroundImageFix"/>
<feBlend mode="normal" in="SourceGraphic" in2="BackgroundImageFix" result="shape"/>
<feGaussianBlur stdDeviation="165.75" result="effect1_foregroundBlur_61_168"/>
<feTurbulence type="fractalNoise" baseFrequency="1 1" stitchTiles="stitch" numOctaves="3" result="noise" seed="8445" />
<feColorMatrix in="noise" type="luminanceToAlpha" result="alphaNoise" />
<feComponentTransfer in="alphaNoise" result="coloredNoise1">
<feFuncA type="discrete" tableValues="1 1 1 1 1 1 1 1 1 1 1 1 1 1 1 1 1 1 1 1 1 1 1 1 1 1 1 1 1 1 1 1 1 1 1 1 1 1 1 1 1 1 1 1 1 1 1 1 1 1 1 0 0 0 0 0 0 0 0 0 0 0 0 0 0 0 0 0 0 0 0 0 0 0 0 0 0 0 0 0 0 0 0 0 0 0 0 0 0 0 0 0 0 0 0 0 0 0 0 0 "/>
</feComponentTransfer>
<feComposite operator="in" in2="effect1_foregroundBlur_61_168" in="coloredNoise1" result="noise1Clipped" />
<feFlood flood-color="#000000" result="color1Flood" />
<feComposite operator="in" in2="noise1Clipped" in="color1Flood" result="color1" />
<feMerge result="effect2_noise_61_168">
<feMergeNode in="effect1_foregroundBlur_61_168" />
<feMergeNode in="color1" />
</feMerge>
</filter>
<filter id="filter5_fn_61_168" x="-360.173" y="565.486" width="1007.83" height="1181.81" filterUnits="userSpaceOnUse" color-interpolation-filters="sRGB">
<feFlood flood-opacity="0" result="BackgroundImageFix"/>
<feBlend mode="normal" in="SourceGraphic" in2="BackgroundImageFix" result="shape"/>
<feGaussianBlur stdDeviation="165.75" result="effect1_foregroundBlur_61_168"/>
<feTurbulence type="fractalNoise" baseFrequency="1 1" stitchTiles="stitch" numOctaves="3" result="noise" seed="8445" />
<feColorMatrix in="noise" type="luminanceToAlpha" result="alphaNoise" />
<feComponentTransfer in="alphaNoise" result="coloredNoise1">
<feFuncA type="discrete" tableValues="1 1 1 1 1 1 1 1 1 1 1 1 1 1 1 1 1 1 1 1 1 1 1 1 1 1 1 1 1 1 1 1 1 1 1 1 1 1 1 1 1 1 1 1 1 1 1 1 1 1 1 0 0 0 0 0 0 0 0 0 0 0 0 0 0 0 0 0 0 0 0 0 0 0 0 0 0 0 0 0 0 0 0 0 0 0 0 0 0 0 0 0 0 0 0 0 0 0 0 0 "/>
</feComponentTransfer>
<feComposite operator="in" in2="effect1_foregroundBlur_61_168" in="coloredNoise1" result="noise1Clipped" />
<feFlood flood-color="#000000" result="color1Flood" />
<feComposite operator="in" in2="noise1Clipped" in="color1Flood" result="color1" />
<feMerge result="effect2_noise_61_168">
<feMergeNode in="effect1_foregroundBlur_61_168" />
<feMergeNode in="color1" />
</feMerge>
</filter>
<filter id="filter6_fn_61_168" x="-583.001" y="5715" width="2395.02" height="1122.99" filterUnits="userSpaceOnUse" color-interpolation-filters="sRGB">
<feFlood flood-opacity="0" result="BackgroundImageFix"/>
<feBlend mode="normal" in="SourceGraphic" in2="BackgroundImageFix" result="shape"/>
<feGaussianBlur stdDeviation="165.75" result="effect1_foregroundBlur_61_168"/>
<feTurbulence type="fractalNoise" baseFrequency="1 1" stitchTiles="stitch" numOctaves="3" result="noise" seed="8445" />
<feColorMatrix in="noise" type="luminanceToAlpha" result="alphaNoise" />
<feComponentTransfer in="alphaNoise" result="coloredNoise1">
<feFuncA type="discrete" tableValues="1 1 1 1 1 1 1 1 1 1 1 1 1 1 1 1 1 1 1 1 1 1 1 1 1 1 1 1 1 1 1 1 1 1 1 1 1 1 1 1 1 1 1 1 1 1 1 1 1 1 1 0 0 0 0 0 0 0 0 0 0 0 0 0 0 0 0 0 0 0 0 0 0 0 0 0 0 0 0 0 0 0 0 0 0 0 0 0 0 0 0 0 0 0 0 0 0 0 0 0 "/>
</feComponentTransfer>
<feComposite operator="in" in2="effect1_foregroundBlur_61_168" in="coloredNoise1" result="noise1Clipped" />
<feFlood flood-color="#000000" result="color1Flood" />
<feComposite operator="in" in2="noise1Clipped" in="color1Flood" result="color1" />
<feMerge result="effect2_noise_61_168">
<feMergeNode in="effect1_foregroundBlur_61_168" />
<feMergeNode in="color1" />
</feMerge>
</filter>
</defs>
</svg>
