<svg width="1440" height="6705" viewBox="0 0 1440 6705" fill="none" xmlns="http://www.w3.org/2000/svg">
<g filter="url(#filter0_fn_61_168)">
<path d="M264.435 0C291.176 0 374.034 2.22983 498.759 7.28074C594.989 11.1777 642.527 22.4672 655.999 33.1434C681.888 53.6599 707.692 76.49 750.404 85.0039C800.711 95.0318 918.651 91.2204 1078.09 87.8756C1157.3 84.5309 1233.06 77.8414 1283.24 72.7229C1333.41 67.6044 1355.7 64.2597 1378.66 60.8136" stroke="#6F00FF" stroke-opacity="0.72" stroke-width="30" stroke-linecap="round"/>
</g>
<g filter="url(#filter1_fn_61_168)">
<path d="M336.263 2487C338.076 2491.45 342.636 2500.43 348.582 2512.78C351.212 2518.24 351.81 2522.9 361.794 2516.28C371.778 2509.67 390.812 2491.86 419.652 2472.1C448.492 2452.35 486.561 2431.19 517.502 2417.51C548.443 2403.83 571.103 2398.26 603.624 2394.28C636.145 2390.29 677.839 2388.07 708.382 2389.15C757.241 2390.87 792.952 2410.4 829.469 2437.85C872.473 2470.18 894.716 2508.25 900.662 2530.14C906.112 2550.19 904.823 2570.14 903.011 2588.09C902.077 2597.33 897.572 2606.04 891.626 2611.74C867.267 2635.1 819.951 2615.28 758.55 2592.25C720.174 2577.86 692.616 2514.4 678.223 2461.84C675.688 2452.58 684.98 2444.42 698.205 2439.84C711.431 2435.27 732.278 2434.16 797.401 2444.16C862.525 2454.17 971.293 2475.32 1034.12 2485.66C1110.24 2498.19 1137.25 2490.41 1160.1 2482.56C1192.58 2471.41 1207.78 2446.58 1253.47 2421.86C1277.22 2409.01 1294.74 2382.6 1313.1 2335.9C1329.46 2294.29 1325.06 2265.49 1323.7 2254.82C1323.03 2249.53 1319.63 2245.28 1315.96 2241.87C1312.29 2238.46 1307.76 2236.23 1300.89 2235.09C1294.03 2233.94 1284.96 2233.94 1275.62 2233.94" stroke="#6F00FF" stroke-opacity="0.72" stroke-width="30" stroke-linecap="round"/>
</g>
<g filter="url(#filter2_fn_61_168)">
<path d="M1231.68 2976.24C1213.55 2976.24 1195.42 2976.24 1154.36 2978.47C1113.3 2980.7 1049.85 2985.15 1009 2989.67C951.614 2996.03 922.347 3008.81 884.086 3031.72C857.829 3047.44 820.446 3078.01 780.441 3114.63C740.435 3151.26 699.647 3194.69 671.837 3227.08C644.027 3259.47 630.431 3279.51 618.442 3302.64C606.453 3325.77 596.483 3351.38 589.534 3378.49C582.585 3405.6 578.959 3433.44 577.091 3463.37C575.223 3493.3 575.223 3524.47 579.302 3566.7C583.381 3608.93 591.539 3661.26 599.367 3694.9C610.67 3743.47 630.981 3764.57 658.763 3787.54C676.965 3802.58 705.58 3820.52 738.183 3839.73C770.786 3858.95 807.042 3877.88 832.517 3893.2C857.993 3908.51 871.589 3919.65 918.021 3967.7C964.454 4015.74 1043.31 4100.37 1087.56 4149.53C1140.32 4208.15 1150.16 4230.2 1156.1 4247.6C1161.38 4263.05 1159.36 4293.06 1155.72 4332.35C1152.61 4365.95 1132.91 4397.69 1102.38 4438.05C1084.07 4462.24 1054.63 4487.31 993.472 4532.25C932.318 4577.2 838.958 4639.55 782.253 4679.47C725.549 4719.38 708.327 4734.97 688.125 4758.03C643.523 4808.95 620.104 4854.38 618.264 4892.42C617.018 4918.17 620.049 4957.19 623.249 4989.52C628.91 5046.7 641.995 5089.39 655.234 5121.39C669.379 5145.6 683.195 5159.27 699.153 5166C708.766 5169.39 721.456 5172.73 734.53 5176.17" stroke="#6F00FF" stroke-opacity="0.72" stroke-width="30" stroke-linecap="round"/>
</g>
<g filter="url(#filter3_nf_61_168)">
<path d="M261.696 1430.03C262.323 1430.03 262.95 1430.03 283.973 1428.49C304.995 1426.95 346.393 1423.87 408.177 1429.22C469.961 1434.56 550.876 1448.43 595.382 1456.73C645.695 1466.12 654.485 1470.5 659.551 1472.82C663.348 1474.56 662.753 1484.46 662.44 1493.79C662.226 1500.14 659.598 1504.73 656.129 1509.39C646.921 1521.75 631.771 1525.72 619.084 1533.13C606.905 1540.25 596.284 1542.88 576.754 1544.05C562.882 1544.88 540.916 1544.45 486.64 1542.14C432.364 1539.82 346.431 1535.2 300.281 1533.2C244.009 1530.77 235.123 1538.98 222.151 1549.46C208.249 1560.68 208.475 1580.17 205.006 1598.47C198.611 1632.19 204.027 1682.86 209.711 1707.02C213.624 1723.65 230.543 1748.2 255.48 1783.51C269.025 1802.69 287.318 1821.14 302.324 1835.3C317.331 1849.46 329.248 1857.94 347.306 1867.7C365.363 1877.46 389.198 1888.25 435.975 1895.73C482.753 1903.21 551.75 1907.07 629.633 1909.44C707.516 1911.81 792.194 1912.58 845.852 1911.43C899.51 1910.29 919.582 1907.21 933.059 1903.69C962.406 1888.5 972.537 1869.89 980.777 1855.83C983.314 1851.94 986.451 1846.54 993.483 1840.99" stroke="#6F00FF" stroke-opacity="0.72" stroke-width="30" stroke-linecap="round"/>
</g>
<g filter="url(#filter4_fn_61_168)">
<path d="M1300.34 5351.63C1285.84 5393.94 1270.21 5436.89 1249.7 5476.18C1228.6 5516.59 1199.68 5523.71 1190.55 5521.48C1180.12 5518.94 1172.21 5487.94 1164.44 5443.06C1156.76 5398.75 1162.05 5363 1174.35 5341.66C1187.15 5319.46 1217.81 5317.92 1244.3 5315.64C1257.19 5314.53 1268.98 5322.27 1278.67 5332.38C1298.67 5353.22 1312.15 5396.37 1327.25 5442.95C1340.01 5482.34 1338.8 5514.6 1336.08 5536.48C1330.24 5583.47 1273.04 5588.89 1229.74 5596.2C1166.11 5606.93 1121.87 5599.08 1110.91 5590.14C1095.75 5577.77 1086.19 5547.46 1069.29 5521.65C1033.66 5467.2 983.653 5454 951.654 5454.52C942.354 5454.67 933.389 5459.53 886.572 5465.15C839.755 5470.77 755.46 5478.56 706.597 5484.25C646.675 5491.22 611.177 5500.05 571.831 5506.78C556.849 5509.35 552.426 5513.52 527.432 5515.24C502.437 5516.96 457.117 5516.96 428.785 5515.84C390.406 5514.34 371.146 5504.64 354.24 5492.31C321.634 5468.52 314.318 5420.39 314.276 5394.54C314.245 5374.71 362.522 5373.02 412.36 5370.2C444.945 5368.36 473.432 5383.01 504.95 5408.23C536.939 5433.83 550.476 5466.24 554.596 5486.44C558.607 5506.1 554.184 5528.09 549.171 5548.86C516.829 5593.25 472.718 5632.79 444.565 5635.59C420.037 5637.28 374.717 5639.51 325.277 5648.55" stroke="#6F00FF" stroke-opacity="0.72" stroke-width="30" stroke-linecap="round"/>
</g>
<g filter="url(#filter5_fn_61_168)">
<path d="M190.69 857.297C194.316 857.297 238.784 871.772 309.223 897.601C350.02 912.561 370.954 933.687 390.139 952.194C408.7 970.098 421.355 993.274 431.861 1021.84C446.1 1060.55 446.13 1112.35 445.224 1156.72C436.105 1214.79 425.997 1254.26 424.624 1277.17C424.157 1294.52 424.157 1323.47 424.157 1353.29" stroke="#6F00FF" stroke-opacity="0.72" stroke-width="30" stroke-linecap="round"/>
</g>
<g filter="url(#filter6_fn_61_168)">
<path d="M1442 6705C1437.47 6661.37 1419.2 6584.95 1400.87 6548.78C1396.69 6540.54 1391.74 6531.97 1365.38 6502.33C1339.03 6472.69 1290.99 6422.59 1241.77 6381.74C1192.55 6340.9 1143.6 6310.83 1115.67 6294.79C1072.45 6269.97 1039.34 6272.03 999.938 6270.85C989.779 6270.55 979.846 6274.19 952.05 6284.25C924.253 6294.3 878.933 6312.12 844.257 6327.98C786.082 6354.58 749.977 6382.1 723.033 6405.65C695.784 6429.46 673.043 6461.89 650.218 6494.99C627.048 6528.6 598.004 6556.4 555.637 6590.57C528.378 6612.55 486.984 6639.2 461.44 6655.77C427.299 6677.91 404.804 6685.83 362.917 6693.14C333.919 6698.2 288.4 6697.1 238.768 6681.53C189.135 6665.96 136.564 6633.67 97.6989 6603.12C58.8336 6572.57 35.2672 6544.73 21.3141 6527.61C7.36107 6510.48 3.73547 6504.91 0 6499.18" stroke="#6F00FF" stroke-opacity="0.72" stroke-width="30" stroke-linecap="round"/>
</g>
<defs>
<filter id="filter0_fn_61_168" x="-82.0651" y="-346.5" width="1807.22" height="784.461" filterUnits="userSpaceOnUse" color-interpolation-filters="sRGB">
<feFlood flood-opacity="0" result="BackgroundImageFix"/>
<feBlend mode="normal" in="SourceGraphic" in2="BackgroundImageFix" result="shape"/>
<feGaussianBlur stdDeviation="165.75" result="effect1_foregroundBlur_61_168"/>
<feTurbulence type="fractalNoise" baseFrequency="1 1" stitchTiles="stitch" numOctaves="3" result="noise" seed="8445" />
<feColorMatrix in="noise" type="luminanceToAlpha" result="alphaNoise" />
<feComponentTransfer in="alphaNoise" result="coloredNoise1">
<feFuncA type="discrete" tableValues="1 1 1 1 1 1 1 1 1 1 1 1 1 1 1 1 1 1 1 1 1 1 1 1 1 1 1 1 1 1 1 1 1 1 1 1 1 1 1 1 1 1 1 1 1 1 1 1 1 1 1 0 0 0 0 0 0 0 0 0 0 0 0 0 0 0 0 0 0 0 0 0 0 0 0 0 0 0 0 0 0 0 0 0 0 0 0 0 0 0 0 0 0 0 0 0 0 0 0 0 "/>
</feComponentTransfer>
<feComposite operator="in" in2="effect1_foregroundBlur_61_168" in="coloredNoise1" result="noise1Clipped" />
<feFlood flood-color="#000000" result="color1Flood" />
<feComposite operator="in" in2="noise1Clipped" in="color1Flood" result="color1" />
<feMerge result="effect2_noise_61_168">
<feMergeNode in="effect1_foregroundBlur_61_168" />
<feMergeNode in="color1" />
</feMerge>
</filter>
<filter id="filter1_fn_61_168" x="-10.2405" y="1887.44" width="1682.01" height="1081.27" filterUnits="userSpaceOnUse" color-interpolation-filters="sRGB">
<feFlood flood-opacity="0" result="BackgroundImageFix"/>
<feBlend mode="normal" in="SourceGraphic" in2="BackgroundImageFix" result="shape"/>
<feGaussianBlur stdDeviation="165.75" result="effect1_foregroundBlur_61_168"/>
<feTurbulence type="fractalNoise" baseFrequency="1 1" stitchTiles="stitch" numOctaves="3" result="noise" seed="8445" />
<feColorMatrix in="noise" type="luminanceToAlpha" result="alphaNoise" />
<feComponentTransfer in="alphaNoise" result="coloredNoise1">
<feFuncA type="discrete" tableValues="1 1 1 1 1 1 1 1 1 1 1 1 1 1 1 1 1 1 1 1 1 1 1 1 1 1 1 1 1 1 1 1 1 1 1 1 1 1 1 1 1 1 1 1 1 1 1 1 1 1 1 0 0 0 0 0 0 0 0 0 0 0 0 0 0 0 0 0 0 0 0 0 0 0 0 0 0 0 0 0 0 0 0 0 0 0 0 0 0 0 0 0 0 0 0 0 0 0 0 0 "/>
</feComponentTransfer>
<feComposite operator="in" in2="effect1_foregroundBlur_61_168" in="coloredNoise1" result="noise1Clipped" />
<feFlood flood-color="#000000" result="color1Flood" />
<feComposite operator="in" in2="noise1Clipped" in="color1Flood" result="color1" />
<feMerge result="effect2_noise_61_168">
<feMergeNode in="effect1_foregroundBlur_61_168" />
<feMergeNode in="color1" />
</feMerge>
</filter>
<filter id="filter2_fn_61_168" x="229.388" y="2629.74" width="1348.79" height="2892.93" filterUnits="userSpaceOnUse" color-interpolation-filters="sRGB">
<feFlood flood-opacity="0" result="BackgroundImageFix"/>
<feBlend mode="normal" in="SourceGraphic" in2="BackgroundImageFix" result="shape"/>
<feGaussianBlur stdDeviation="165.75" result="effect1_foregroundBlur_61_168"/>
<feTurbulence type="fractalNoise" baseFrequency="1 1" stitchTiles="stitch" numOctaves="3" result="noise" seed="8445" />
<feColorMatrix in="noise" type="luminanceToAlpha" result="alphaNoise" />
<feComponentTransfer in="alphaNoise" result="coloredNoise1">
<feFuncA type="discrete" tableValues="1 1 1 1 1 1 1 1 1 1 1 1 1 1 1 1 1 1 1 1 1 1 1 1 1 1 1 1 1 1 1 1 1 1 1 1 1 1 1 1 1 1 1 1 1 1 1 1 1 1 1 0 0 0 0 0 0 0 0 0 0 0 0 0 0 0 0 0 0 0 0 0 0 0 0 0 0 0 0 0 0 0 0 0 0 0 0 0 0 0 0 0 0 0 0 0 0 0 0 0 "/>
</feComponentTransfer>
<feComposite operator="in" in2="effect1_foregroundBlur_61_168" in="coloredNoise1" result="noise1Clipped" />
<feFlood flood-color="#000000" result="color1Flood" />
<feComposite operator="in" in2="noise1Clipped" in="color1Flood" result="color1" />
<feMerge result="effect2_noise_61_168">
<feMergeNode in="effect1_foregroundBlur_61_168" />
<feMergeNode in="color1" />
</feMerge>
</filter>
<filter id="filter3_nf_61_168" x="-144.381" y="1079.7" width="1484.36" height="1178.75" filterUnits="userSpaceOnUse" color-interpolation-filters="sRGB">
<feFlood flood-opacity="0" result="BackgroundImageFix"/>
<feBlend mode="normal" in="SourceGraphic" in2="BackgroundImageFix" result="shape"/>
<feTurbulence type="fractalNoise" baseFrequency="1 1" stitchTiles="stitch" numOctaves="3" result="noise" seed="8445" />
<feColorMatrix in="noise" type="luminanceToAlpha" result="alphaNoise" />
<feComponentTransfer in="alphaNoise" result="coloredNoise1">
<feFuncA type="discrete" tableValues="1 1 1 1 1 1 1 1 1 1 1 1 1 1 1 1 1 1 1 1 1 1 1 1 1 1 1 1 1 1 1 1 1 1 1 1 1 1 1 1 1 1 1 1 1 1 1 1 1 1 1 0 0 0 0 0 0 0 0 0 0 0 0 0 0 0 0 0 0 0 0 0 0 0 0 0 0 0 0 0 0 0 0 0 0 0 0 0 0 0 0 0 0 0 0 0 0 0 0 0 "/>
</feComponentTransfer>
<feComposite operator="in" in2="shape" in="coloredNoise1" result="noise1Clipped" />
<feFlood flood-color="#000000" result="color1Flood" />
<feComposite operator="in" in2="noise1Clipped" in="color1Flood" result="color1" />
<feMerge result="effect1_noise_61_168">
<feMergeNode in="shape" />
<feMergeNode in="color1" />
</feMerge>
<feGaussianBlur stdDeviation="165.75" result="effect2_foregroundBlur_61_168"/>
</filter>
<filter id="filter4_fn_61_168" x="-32.2235" y="4969.03" width="1716.57" height="1026.02" filterUnits="userSpaceOnUse" color-interpolation-filters="sRGB">
<feFlood flood-opacity="0" result="BackgroundImageFix"/>
<feBlend mode="normal" in="SourceGraphic" in2="BackgroundImageFix" result="shape"/>
<feGaussianBlur stdDeviation="165.75" result="effect1_foregroundBlur_61_168"/>
<feTurbulence type="fractalNoise" baseFrequency="1 1" stitchTiles="stitch" numOctaves="3" result="noise" seed="8445" />
<feColorMatrix in="noise" type="luminanceToAlpha" result="alphaNoise" />
<feComponentTransfer in="alphaNoise" result="coloredNoise1">
<feFuncA type="discrete" tableValues="1 1 1 1 1 1 1 1 1 1 1 1 1 1 1 1 1 1 1 1 1 1 1 1 1 1 1 1 1 1 1 1 1 1 1 1 1 1 1 1 1 1 1 1 1 1 1 1 1 1 1 0 0 0 0 0 0 0 0 0 0 0 0 0 0 0 0 0 0 0 0 0 0 0 0 0 0 0 0 0 0 0 0 0 0 0 0 0 0 0 0 0 0 0 0 0 0 0 0 0 "/>
</feComponentTransfer>
<feComposite operator="in" in2="effect1_foregroundBlur_61_168" in="coloredNoise1" result="noise1Clipped" />
<feFlood flood-color="#000000" result="color1Flood" />
<feComposite operator="in" in2="noise1Clipped" in="color1Flood" result="color1" />
<feMerge result="effect2_noise_61_168">
<feMergeNode in="effect1_foregroundBlur_61_168" />
<feMergeNode in="color1" />
</feMerge>
</filter>
<filter id="filter5_fn_61_168" x="-155.81" y="510.797" width="947.866" height="1189" filterUnits="userSpaceOnUse" color-interpolation-filters="sRGB">
<feFlood flood-opacity="0" result="BackgroundImageFix"/>
<feBlend mode="normal" in="SourceGraphic" in2="BackgroundImageFix" result="shape"/>
<feGaussianBlur stdDeviation="165.75" result="effect1_foregroundBlur_61_168"/>
<feTurbulence type="fractalNoise" baseFrequency="1 1" stitchTiles="stitch" numOctaves="3" result="noise" seed="8445" />
<feColorMatrix in="noise" type="luminanceToAlpha" result="alphaNoise" />
<feComponentTransfer in="alphaNoise" result="coloredNoise1">
<feFuncA type="discrete" tableValues="1 1 1 1 1 1 1 1 1 1 1 1 1 1 1 1 1 1 1 1 1 1 1 1 1 1 1 1 1 1 1 1 1 1 1 1 1 1 1 1 1 1 1 1 1 1 1 1 1 1 1 0 0 0 0 0 0 0 0 0 0 0 0 0 0 0 0 0 0 0 0 0 0 0 0 0 0 0 0 0 0 0 0 0 0 0 0 0 0 0 0 0 0 0 0 0 0 0 0 0 "/>
</feComponentTransfer>
<feComposite operator="in" in2="effect1_foregroundBlur_61_168" in="coloredNoise1" result="noise1Clipped" />
<feFlood flood-color="#000000" result="color1Flood" />
<feComposite operator="in" in2="noise1Clipped" in="color1Flood" result="color1" />
<feMerge result="effect2_noise_61_168">
<feMergeNode in="effect1_foregroundBlur_61_168" />
<feMergeNode in="color1" />
</feMerge>
</filter>
<filter id="filter6_fn_61_168" x="-346.502" y="5924.33" width="2135" height="1127.17" filterUnits="userSpaceOnUse" color-interpolation-filters="sRGB">
<feFlood flood-opacity="0" result="BackgroundImageFix"/>
<feBlend mode="normal" in="SourceGraphic" in2="BackgroundImageFix" result="shape"/>
<feGaussianBlur stdDeviation="165.75" result="effect1_foregroundBlur_61_168"/>
<feTurbulence type="fractalNoise" baseFrequency="1 1" stitchTiles="stitch" numOctaves="3" result="noise" seed="8445" />
<feColorMatrix in="noise" type="luminanceToAlpha" result="alphaNoise" />
<feComponentTransfer in="alphaNoise" result="coloredNoise1">
<feFuncA type="discrete" tableValues="1 1 1 1 1 1 1 1 1 1 1 1 1 1 1 1 1 1 1 1 1 1 1 1 1 1 1 1 1 1 1 1 1 1 1 1 1 1 1 1 1 1 1 1 1 1 1 1 1 1 1 0 0 0 0 0 0 0 0 0 0 0 0 0 0 0 0 0 0 0 0 0 0 0 0 0 0 0 0 0 0 0 0 0 0 0 0 0 0 0 0 0 0 0 0 0 0 0 0 0 "/>
</feComponentTransfer>
<feComposite operator="in" in2="effect1_foregroundBlur_61_168" in="coloredNoise1" result="noise1Clipped" />
<feFlood flood-color="#000000" result="color1Flood" />
<feComposite operator="in" in2="noise1Clipped" in="color1Flood" result="color1" />
<feMerge result="effect2_noise_61_168">
<feMergeNode in="effect1_foregroundBlur_61_168" />
<feMergeNode in="color1" />
</feMerge>
</filter>
</defs>
</svg>
