<svg width="2152" height="7415" viewBox="0 0 2152 7415" fill="none" xmlns="http://www.w3.org/2000/svg">
<g filter="url(#filter0_fn_61_168)">
<path d="M619.438 355C646.179 355 729.036 357.23 853.761 362.281C949.992 366.178 997.53 377.467 1011 388.143C1036.89 408.66 1062.69 431.49 1105.41 440.004C1155.71 450.032 1273.65 446.22 1433.09 442.876C1512.3 439.531 1588.07 432.841 1638.24 427.723C1688.41 422.604 1710.7 419.26 1733.66 415.814" stroke="#A259FF" stroke-width="47" stroke-linecap="round"/>
</g>
<g filter="url(#filter1_fn_61_168)">
<path d="M691.266 2842C693.079 2846.45 697.638 2855.43 703.585 2867.78C706.215 2873.24 706.812 2877.9 716.796 2871.28C726.781 2864.67 745.815 2846.86 774.655 2827.1C803.495 2807.35 841.564 2786.19 872.505 2772.51C903.446 2758.83 926.106 2753.26 958.627 2749.28C991.147 2745.29 1032.84 2743.07 1063.38 2744.15C1112.24 2745.87 1147.95 2765.4 1184.47 2792.85C1227.48 2825.18 1249.72 2863.25 1255.66 2885.14C1261.12 2905.19 1259.83 2925.14 1258.01 2943.09C1257.08 2952.33 1252.57 2961.04 1246.63 2966.74C1222.27 2990.1 1174.95 2970.28 1113.55 2947.25C1075.18 2932.86 1047.62 2869.4 1033.23 2816.84C1030.69 2807.58 1039.98 2799.42 1053.21 2794.84C1066.43 2790.27 1087.28 2789.16 1152.4 2799.16C1217.53 2809.17 1326.3 2830.32 1389.13 2840.66C1465.24 2853.19 1492.25 2845.41 1515.1 2837.56C1547.58 2826.41 1562.78 2801.58 1608.47 2776.86C1632.23 2764.01 1649.74 2737.6 1668.1 2690.9C1684.46 2649.29 1680.07 2620.49 1678.71 2609.82C1678.03 2604.53 1674.63 2600.28 1670.96 2596.87C1667.29 2593.46 1662.76 2591.23 1655.9 2590.09C1649.03 2588.94 1639.96 2588.94 1630.63 2588.94" stroke="#A259FF" stroke-width="47" stroke-linecap="round"/>
</g>
<g filter="url(#filter2_fn_61_168)">
<path d="M1586.68 3331.24C1568.55 3331.24 1550.42 3331.24 1509.36 3333.47C1468.3 3335.7 1404.85 3340.15 1364.01 3344.67C1306.62 3351.03 1277.35 3363.81 1239.09 3386.72C1212.83 3402.44 1175.45 3433.01 1135.44 3469.63C1095.44 3506.26 1054.65 3549.69 1026.84 3582.08C999.03 3614.47 985.434 3634.51 973.445 3657.64C961.456 3680.77 951.485 3706.38 944.536 3733.49C937.587 3760.6 933.962 3788.44 932.094 3818.37C930.226 3848.3 930.226 3879.47 934.305 3921.7C938.384 3963.93 946.541 4016.26 954.369 4049.9C965.673 4098.47 985.983 4119.57 1013.77 4142.54C1031.97 4157.58 1060.58 4175.52 1093.19 4194.73C1125.79 4213.95 1162.04 4232.88 1187.52 4248.2C1213 4263.51 1226.59 4274.65 1273.02 4322.7C1319.46 4370.74 1398.31 4455.37 1442.56 4504.53C1495.33 4563.15 1505.16 4585.2 1511.11 4602.6C1516.39 4618.05 1514.36 4648.06 1510.72 4687.35C1507.61 4720.95 1487.91 4752.69 1457.38 4793.05C1439.08 4817.24 1409.63 4842.31 1348.47 4887.25C1287.32 4932.2 1193.96 4994.55 1137.26 5034.47C1080.55 5074.38 1063.33 5089.97 1043.13 5113.03C998.526 5163.95 975.107 5209.38 973.266 5247.42C972.021 5273.17 975.052 5312.19 978.252 5344.52C983.913 5401.7 996.998 5444.39 1010.24 5476.39C1024.38 5500.6 1038.2 5514.27 1054.16 5521C1063.77 5524.39 1076.46 5527.73 1089.53 5531.17" stroke="#A259FF" stroke-width="47" stroke-linecap="round"/>
</g>
<g filter="url(#filter3_nf_61_168)">
<path d="M616.699 1785.03C617.326 1785.03 617.953 1785.03 638.975 1783.49C659.998 1781.95 701.396 1778.87 763.18 1784.22C824.963 1789.56 905.878 1803.43 950.384 1811.73C1000.7 1821.12 1009.49 1825.5 1014.55 1827.82C1018.35 1829.56 1017.76 1839.46 1017.44 1848.79C1017.23 1855.14 1014.6 1859.73 1011.13 1864.39C1001.92 1876.75 986.774 1880.72 974.087 1888.13C961.908 1895.25 951.287 1897.88 931.757 1899.05C917.885 1899.88 895.918 1899.45 841.643 1897.14C787.367 1894.82 701.434 1890.2 655.284 1888.2C599.011 1885.77 590.126 1893.98 577.154 1904.46C563.252 1915.68 563.478 1935.17 560.009 1953.47C553.614 1987.19 559.03 2037.86 564.713 2062.02C568.627 2078.65 585.545 2103.2 610.483 2138.51C624.028 2157.69 642.321 2176.14 657.327 2190.3C672.334 2204.46 684.251 2212.94 702.308 2222.7C720.365 2232.46 744.201 2243.25 790.978 2250.73C837.756 2258.21 906.753 2262.07 984.636 2264.44C1062.52 2266.81 1147.2 2267.58 1200.86 2266.43C1254.51 2265.29 1274.59 2262.21 1288.06 2258.69C1317.41 2243.5 1327.54 2224.89 1335.78 2210.83C1338.32 2206.94 1341.45 2201.54 1348.49 2195.99" stroke="#A259FF" stroke-width="47" stroke-linecap="round"/>
</g>
<g filter="url(#filter4_fn_61_168)">
<path d="M1655.35 5706.63C1640.84 5748.94 1625.22 5791.89 1604.7 5831.18C1583.6 5871.59 1554.68 5878.71 1545.55 5876.48C1535.12 5873.94 1527.21 5842.94 1519.44 5798.06C1511.77 5753.75 1517.05 5718 1529.36 5696.66C1542.15 5674.46 1572.81 5672.92 1599.3 5670.64C1612.19 5669.53 1623.98 5677.27 1633.68 5687.38C1653.67 5708.22 1667.16 5751.37 1682.25 5797.95C1695.01 5837.34 1693.8 5869.6 1691.08 5891.48C1685.24 5938.47 1628.04 5943.89 1584.74 5951.2C1521.11 5961.93 1476.87 5954.08 1465.91 5945.14C1450.75 5932.77 1441.19 5902.46 1424.3 5876.65C1388.66 5822.2 1338.66 5809 1306.66 5809.52C1297.36 5809.67 1288.39 5814.53 1241.57 5820.15C1194.76 5825.77 1110.46 5833.56 1061.6 5839.25C1001.68 5846.22 966.18 5855.05 926.834 5861.78C911.852 5864.35 907.429 5868.52 882.434 5870.24C857.44 5871.96 812.12 5871.96 783.788 5870.84C745.409 5869.34 726.149 5859.64 709.243 5847.31C676.636 5823.52 669.32 5775.39 669.279 5749.54C669.248 5729.71 717.524 5728.02 767.363 5725.2C799.948 5723.36 828.435 5738.01 859.953 5763.23C891.942 5788.83 905.479 5821.24 909.599 5841.44C913.61 5861.1 909.187 5883.09 904.174 5903.86C871.832 5948.25 827.721 5987.79 799.567 5990.59C775.04 5992.28 729.72 5994.51 680.28 6003.55" stroke="#A259FF" stroke-width="47" stroke-linecap="round"/>
</g>
<g filter="url(#filter5_fn_61_168)">
<path d="M545.693 1212.3C549.318 1212.3 593.787 1226.77 664.225 1252.6C705.023 1267.56 725.957 1288.69 745.142 1307.19C763.703 1325.1 776.358 1348.27 786.864 1376.84C801.103 1415.55 801.133 1467.35 800.226 1511.72C791.108 1569.79 781 1609.26 779.627 1632.17C779.16 1649.52 779.16 1678.47 779.16 1708.29" stroke="#A259FF" stroke-width="47" stroke-linecap="round"/>
</g>
<g filter="url(#filter6_fn_61_168)">
<path d="M1797 7060C1792.47 7016.37 1774.21 6939.95 1755.87 6903.78C1751.69 6895.54 1746.74 6886.97 1720.38 6857.33C1694.03 6827.69 1645.99 6777.59 1596.77 6736.74C1547.55 6695.9 1498.6 6665.83 1470.67 6649.79C1427.45 6624.97 1394.34 6627.03 1354.94 6625.85C1344.78 6625.55 1334.85 6629.19 1307.05 6639.25C1279.26 6649.3 1233.94 6667.12 1199.26 6682.98C1141.09 6709.58 1104.98 6737.1 1078.04 6760.65C1050.79 6784.46 1028.05 6816.89 1005.22 6849.99C982.051 6883.6 953.007 6911.4 910.64 6945.57C883.381 6967.55 841.987 6994.2 816.443 7010.77C782.302 7032.91 759.806 7040.83 717.92 7048.14C688.921 7053.2 643.403 7052.1 593.77 7036.53C544.138 7020.96 491.567 6988.67 452.702 6958.12C413.836 6927.57 390.27 6899.73 376.317 6882.61C362.364 6865.48 358.738 6859.91 355.003 6854.18" stroke="#A259FF" stroke-width="47" stroke-linecap="round"/>
</g>
<defs>
<filter id="filter0_fn_61_168" x="264.438" y="0" width="1824.22" height="801.461" filterUnits="userSpaceOnUse" color-interpolation-filters="sRGB">
<feFlood flood-opacity="0" result="BackgroundImageFix"/>
<feBlend mode="normal" in="SourceGraphic" in2="BackgroundImageFix" result="shape"/>
<feGaussianBlur stdDeviation="165.75" result="effect1_foregroundBlur_61_168"/>
<feTurbulence type="fractalNoise" baseFrequency="1 1" stitchTiles="stitch" numOctaves="3" result="noise" seed="8445" />
<feColorMatrix in="noise" type="luminanceToAlpha" result="alphaNoise" />
<feComponentTransfer in="alphaNoise" result="coloredNoise1">
<feFuncA type="discrete" tableValues="1 1 1 1 1 1 1 1 1 1 1 1 1 1 1 1 1 1 1 1 1 1 1 1 1 1 1 1 1 1 1 1 1 1 1 1 1 1 1 1 1 1 1 1 1 1 1 1 1 1 1 0 0 0 0 0 0 0 0 0 0 0 0 0 0 0 0 0 0 0 0 0 0 0 0 0 0 0 0 0 0 0 0 0 0 0 0 0 0 0 0 0 0 0 0 0 0 0 0 0 "/>
</feComponentTransfer>
<feComposite operator="in" in2="effect1_foregroundBlur_61_168" in="coloredNoise1" result="noise1Clipped" />
<feFlood flood-color="#000000" result="color1Flood" />
<feComposite operator="in" in2="noise1Clipped" in="color1Flood" result="color1" />
<feMerge result="effect2_noise_61_168">
<feMergeNode in="effect1_foregroundBlur_61_168" />
<feMergeNode in="color1" />
</feMerge>
</filter>
<filter id="filter1_fn_61_168" x="336.26" y="2233.94" width="1699.01" height="1098.26" filterUnits="userSpaceOnUse" color-interpolation-filters="sRGB">
<feFlood flood-opacity="0" result="BackgroundImageFix"/>
<feBlend mode="normal" in="SourceGraphic" in2="BackgroundImageFix" result="shape"/>
<feGaussianBlur stdDeviation="165.75" result="effect1_foregroundBlur_61_168"/>
<feTurbulence type="fractalNoise" baseFrequency="1 1" stitchTiles="stitch" numOctaves="3" result="noise" seed="8445" />
<feColorMatrix in="noise" type="luminanceToAlpha" result="alphaNoise" />
<feComponentTransfer in="alphaNoise" result="coloredNoise1">
<feFuncA type="discrete" tableValues="1 1 1 1 1 1 1 1 1 1 1 1 1 1 1 1 1 1 1 1 1 1 1 1 1 1 1 1 1 1 1 1 1 1 1 1 1 1 1 1 1 1 1 1 1 1 1 1 1 1 1 0 0 0 0 0 0 0 0 0 0 0 0 0 0 0 0 0 0 0 0 0 0 0 0 0 0 0 0 0 0 0 0 0 0 0 0 0 0 0 0 0 0 0 0 0 0 0 0 0 "/>
</feComponentTransfer>
<feComposite operator="in" in2="effect1_foregroundBlur_61_168" in="coloredNoise1" result="noise1Clipped" />
<feFlood flood-color="#000000" result="color1Flood" />
<feComposite operator="in" in2="noise1Clipped" in="color1Flood" result="color1" />
<feMerge result="effect2_noise_61_168">
<feMergeNode in="effect1_foregroundBlur_61_168" />
<feMergeNode in="color1" />
</feMerge>
</filter>
<filter id="filter2_fn_61_168" x="575.891" y="2976.24" width="1365.79" height="2909.93" filterUnits="userSpaceOnUse" color-interpolation-filters="sRGB">
<feFlood flood-opacity="0" result="BackgroundImageFix"/>
<feBlend mode="normal" in="SourceGraphic" in2="BackgroundImageFix" result="shape"/>
<feGaussianBlur stdDeviation="165.75" result="effect1_foregroundBlur_61_168"/>
<feTurbulence type="fractalNoise" baseFrequency="1 1" stitchTiles="stitch" numOctaves="3" result="noise" seed="8445" />
<feColorMatrix in="noise" type="luminanceToAlpha" result="alphaNoise" />
<feComponentTransfer in="alphaNoise" result="coloredNoise1">
<feFuncA type="discrete" tableValues="1 1 1 1 1 1 1 1 1 1 1 1 1 1 1 1 1 1 1 1 1 1 1 1 1 1 1 1 1 1 1 1 1 1 1 1 1 1 1 1 1 1 1 1 1 1 1 1 1 1 1 0 0 0 0 0 0 0 0 0 0 0 0 0 0 0 0 0 0 0 0 0 0 0 0 0 0 0 0 0 0 0 0 0 0 0 0 0 0 0 0 0 0 0 0 0 0 0 0 0 "/>
</feComponentTransfer>
<feComposite operator="in" in2="effect1_foregroundBlur_61_168" in="coloredNoise1" result="noise1Clipped" />
<feFlood flood-color="#000000" result="color1Flood" />
<feComposite operator="in" in2="noise1Clipped" in="color1Flood" result="color1" />
<feMerge result="effect2_noise_61_168">
<feMergeNode in="effect1_foregroundBlur_61_168" />
<feMergeNode in="color1" />
</feMerge>
</filter>
<filter id="filter3_nf_61_168" x="202.123" y="1426.2" width="1501.36" height="1195.75" filterUnits="userSpaceOnUse" color-interpolation-filters="sRGB">
<feFlood flood-opacity="0" result="BackgroundImageFix"/>
<feBlend mode="normal" in="SourceGraphic" in2="BackgroundImageFix" result="shape"/>
<feTurbulence type="fractalNoise" baseFrequency="1 1" stitchTiles="stitch" numOctaves="3" result="noise" seed="8445" />
<feColorMatrix in="noise" type="luminanceToAlpha" result="alphaNoise" />
<feComponentTransfer in="alphaNoise" result="coloredNoise1">
<feFuncA type="discrete" tableValues="1 1 1 1 1 1 1 1 1 1 1 1 1 1 1 1 1 1 1 1 1 1 1 1 1 1 1 1 1 1 1 1 1 1 1 1 1 1 1 1 1 1 1 1 1 1 1 1 1 1 1 0 0 0 0 0 0 0 0 0 0 0 0 0 0 0 0 0 0 0 0 0 0 0 0 0 0 0 0 0 0 0 0 0 0 0 0 0 0 0 0 0 0 0 0 0 0 0 0 0 "/>
</feComponentTransfer>
<feComposite operator="in" in2="shape" in="coloredNoise1" result="noise1Clipped" />
<feFlood flood-color="#000000" result="color1Flood" />
<feComposite operator="in" in2="noise1Clipped" in="color1Flood" result="color1" />
<feMerge result="effect1_noise_61_168">
<feMergeNode in="shape" />
<feMergeNode in="color1" />
</feMerge>
<feGaussianBlur stdDeviation="165.75" result="effect2_foregroundBlur_61_168"/>
</filter>
<filter id="filter4_fn_61_168" x="314.279" y="5315.53" width="1733.57" height="1043.02" filterUnits="userSpaceOnUse" color-interpolation-filters="sRGB">
<feFlood flood-opacity="0" result="BackgroundImageFix"/>
<feBlend mode="normal" in="SourceGraphic" in2="BackgroundImageFix" result="shape"/>
<feGaussianBlur stdDeviation="165.75" result="effect1_foregroundBlur_61_168"/>
<feTurbulence type="fractalNoise" baseFrequency="1 1" stitchTiles="stitch" numOctaves="3" result="noise" seed="8445" />
<feColorMatrix in="noise" type="luminanceToAlpha" result="alphaNoise" />
<feComponentTransfer in="alphaNoise" result="coloredNoise1">
<feFuncA type="discrete" tableValues="1 1 1 1 1 1 1 1 1 1 1 1 1 1 1 1 1 1 1 1 1 1 1 1 1 1 1 1 1 1 1 1 1 1 1 1 1 1 1 1 1 1 1 1 1 1 1 1 1 1 1 0 0 0 0 0 0 0 0 0 0 0 0 0 0 0 0 0 0 0 0 0 0 0 0 0 0 0 0 0 0 0 0 0 0 0 0 0 0 0 0 0 0 0 0 0 0 0 0 0 "/>
</feComponentTransfer>
<feComposite operator="in" in2="effect1_foregroundBlur_61_168" in="coloredNoise1" result="noise1Clipped" />
<feFlood flood-color="#000000" result="color1Flood" />
<feComposite operator="in" in2="noise1Clipped" in="color1Flood" result="color1" />
<feMerge result="effect2_noise_61_168">
<feMergeNode in="effect1_foregroundBlur_61_168" />
<feMergeNode in="color1" />
</feMerge>
</filter>
<filter id="filter5_fn_61_168" x="190.693" y="857.297" width="964.87" height="1206" filterUnits="userSpaceOnUse" color-interpolation-filters="sRGB">
<feFlood flood-opacity="0" result="BackgroundImageFix"/>
<feBlend mode="normal" in="SourceGraphic" in2="BackgroundImageFix" result="shape"/>
<feGaussianBlur stdDeviation="165.75" result="effect1_foregroundBlur_61_168"/>
<feTurbulence type="fractalNoise" baseFrequency="1 1" stitchTiles="stitch" numOctaves="3" result="noise" seed="8445" />
<feColorMatrix in="noise" type="luminanceToAlpha" result="alphaNoise" />
<feComponentTransfer in="alphaNoise" result="coloredNoise1">
<feFuncA type="discrete" tableValues="1 1 1 1 1 1 1 1 1 1 1 1 1 1 1 1 1 1 1 1 1 1 1 1 1 1 1 1 1 1 1 1 1 1 1 1 1 1 1 1 1 1 1 1 1 1 1 1 1 1 1 0 0 0 0 0 0 0 0 0 0 0 0 0 0 0 0 0 0 0 0 0 0 0 0 0 0 0 0 0 0 0 0 0 0 0 0 0 0 0 0 0 0 0 0 0 0 0 0 0 "/>
</feComponentTransfer>
<feComposite operator="in" in2="effect1_foregroundBlur_61_168" in="coloredNoise1" result="noise1Clipped" />
<feFlood flood-color="#000000" result="color1Flood" />
<feComposite operator="in" in2="noise1Clipped" in="color1Flood" result="color1" />
<feMerge result="effect2_noise_61_168">
<feMergeNode in="effect1_foregroundBlur_61_168" />
<feMergeNode in="color1" />
</feMerge>
</filter>
<filter id="filter6_fn_61_168" x="0" y="6270.83" width="2152" height="1144.17" filterUnits="userSpaceOnUse" color-interpolation-filters="sRGB">
<feFlood flood-opacity="0" result="BackgroundImageFix"/>
<feBlend mode="normal" in="SourceGraphic" in2="BackgroundImageFix" result="shape"/>
<feGaussianBlur stdDeviation="165.75" result="effect1_foregroundBlur_61_168"/>
<feTurbulence type="fractalNoise" baseFrequency="1 1" stitchTiles="stitch" numOctaves="3" result="noise" seed="8445" />
<feColorMatrix in="noise" type="luminanceToAlpha" result="alphaNoise" />
<feComponentTransfer in="alphaNoise" result="coloredNoise1">
<feFuncA type="discrete" tableValues="1 1 1 1 1 1 1 1 1 1 1 1 1 1 1 1 1 1 1 1 1 1 1 1 1 1 1 1 1 1 1 1 1 1 1 1 1 1 1 1 1 1 1 1 1 1 1 1 1 1 1 0 0 0 0 0 0 0 0 0 0 0 0 0 0 0 0 0 0 0 0 0 0 0 0 0 0 0 0 0 0 0 0 0 0 0 0 0 0 0 0 0 0 0 0 0 0 0 0 0 "/>
</feComponentTransfer>
<feComposite operator="in" in2="effect1_foregroundBlur_61_168" in="coloredNoise1" result="noise1Clipped" />
<feFlood flood-color="#000000" result="color1Flood" />
<feComposite operator="in" in2="noise1Clipped" in="color1Flood" result="color1" />
<feMerge result="effect2_noise_61_168">
<feMergeNode in="effect1_foregroundBlur_61_168" />
<feMergeNode in="color1" />
</feMerge>
</filter>
</defs>
</svg>
