<svg width="53" height="44" viewBox="0 0 53 44" fill="none" xmlns="http://www.w3.org/2000/svg">
<path d="M25.9814 21.9981C25.9819 22.2288 25.9294 22.4566 25.8278 22.6645C25.7261 22.8723 25.578 23.0548 25.3946 23.1983L15.0028 31.3833C14.8429 31.511 14.6589 31.6063 14.4615 31.6637C14.264 31.7211 14.057 31.7394 13.8523 31.7176C13.6476 31.6958 13.4493 31.6343 13.2689 31.5367C13.0885 31.439 12.9294 31.3072 12.801 31.1488C12.6726 30.9904 12.5773 30.8085 12.5206 30.6136C12.4639 30.4187 12.447 30.2147 12.4708 30.0134C12.4946 29.8121 12.5586 29.6173 12.6592 29.4405C12.7598 29.2636 12.895 29.1081 13.0569 28.983L21.9269 21.9981L13.0607 15.0133C12.7412 14.758 12.5371 14.3888 12.4928 13.986C12.4485 13.5832 12.5677 13.1796 12.8244 12.8629C13.0811 12.5463 13.4545 12.3423 13.8632 12.2955C14.2719 12.2487 14.6829 12.3628 15.0066 12.613L25.3984 20.798C25.5811 20.9418 25.7285 21.1245 25.8295 21.3323C25.9304 21.5401 25.9824 21.7678 25.9814 21.9981ZM38.9701 28.6475H28.5821C28.1685 28.6475 27.7718 28.8093 27.4793 29.0973C27.1868 29.3853 27.0224 29.7759 27.0224 30.1831C27.0224 30.5904 27.1868 30.981 27.4793 31.269C27.7718 31.557 28.1685 31.7188 28.5821 31.7188H38.9739C39.3876 31.7188 39.7843 31.557 40.0768 31.269C40.3693 30.981 40.5336 30.5904 40.5336 30.1831C40.5336 29.7759 40.3693 29.3853 40.0768 29.0973C39.7843 28.8093 39.3876 28.6475 38.9739 28.6475M53 3.5856V40.4181C53.0005 40.8883 52.9069 41.354 52.7244 41.7886C52.542 42.2231 52.2744 42.618 51.9369 42.9507C51.5994 43.2833 51.1986 43.5472 50.7574 43.7273C50.3162 43.9073 49.8433 44 49.3657 44H3.63429C2.67041 44 1.74602 43.623 1.06446 42.952C0.382897 42.281 0 41.3708 0 40.4219V3.57814C0 2.62916 0.382897 1.71905 1.06446 1.04801C1.74602 0.376982 2.67041 0 3.63429 0H49.3657C50.3296 0 51.254 0.376982 51.9355 1.04801C52.6171 1.71905 53 2.62916 53 3.57814M49.8844 3.57814C49.8844 3.51077 49.8708 3.44407 49.8445 3.38187C49.8182 3.31967 49.7797 3.26322 49.7311 3.21575C49.6826 3.16828 49.6249 3.13075 49.5616 3.10531C49.4982 3.07987 49.4304 3.06702 49.3619 3.06751H3.63807C3.50052 3.06751 3.3686 3.12131 3.27134 3.21707C3.17407 3.31284 3.11943 3.44272 3.11943 3.57814V40.4107C3.11943 40.5461 3.17407 40.676 3.27134 40.7717C3.3686 40.8675 3.50052 40.9213 3.63807 40.9213H49.3619C49.4304 40.9218 49.4982 40.909 49.5616 40.8835C49.6249 40.8581 49.6826 40.8205 49.7311 40.7731C49.7797 40.7256 49.8182 40.6691 49.8445 40.6069C49.8708 40.5447 49.8844 40.478 49.8844 40.4107V3.57814Z" fill="#8A38F5"/>
</svg>
