<svg width="53" height="53" viewBox="0 0 53 53" fill="none" xmlns="http://www.w3.org/2000/svg">
<path d="M26.0462 26.5001C26.0467 26.7051 26.0007 26.9076 25.9118 27.0923C25.8229 27.277 25.6933 27.4392 25.5328 27.5667L16.4399 34.841C16.3 34.9545 16.1391 35.0392 15.9663 35.0901C15.7935 35.1411 15.6123 35.1574 15.4332 35.138C15.2541 35.1186 15.0807 35.064 14.9228 34.9772C14.7649 34.8905 14.6258 34.7733 14.5134 34.6325C14.401 34.4917 14.3176 34.3301 14.268 34.1569C14.2184 33.9837 14.2036 33.8024 14.2244 33.6235C14.2452 33.4445 14.3013 33.2715 14.3893 33.1143C14.4773 32.9571 14.5956 32.8189 14.7373 32.7077L22.4985 26.5001L14.7406 20.2925C14.461 20.0656 14.2824 19.7374 14.2437 19.3795C14.205 19.0215 14.3093 18.6628 14.5339 18.3813C14.7585 18.0999 15.0852 17.9187 15.4428 17.8771C15.8005 17.8355 16.16 17.9369 16.4433 18.1592L25.5361 25.4335C25.696 25.5613 25.8249 25.7236 25.9133 25.9083C26.0016 26.0931 26.0471 26.2953 26.0462 26.5001ZM37.4114 32.4096H28.3219C27.9599 32.4096 27.6128 32.5534 27.3568 32.8093C27.1009 33.0652 26.9571 33.4124 26.9571 33.7743C26.9571 34.1363 27.1009 34.4834 27.3568 34.7394C27.6128 34.9953 27.9599 35.1391 28.3219 35.1391H37.4147C37.7766 35.1391 38.1238 34.9953 38.3797 34.7394C38.6357 34.4834 38.7794 34.1363 38.7794 33.7743C38.7794 33.4124 38.6357 33.0652 38.3797 32.8093C38.1238 32.5534 37.7766 32.4096 37.4147 32.4096M49.6875 10.1363V42.8705C49.6879 43.2883 49.606 43.7022 49.4464 44.0884C49.2868 44.4746 49.0526 44.8256 48.7573 45.1212C48.4619 45.4168 48.1112 45.6514 47.7252 45.8114C47.3392 45.9714 46.9254 46.0538 46.5075 46.0538H6.4925C5.64911 46.0538 4.84027 45.7187 4.2439 45.1224C3.64753 44.526 3.3125 43.7172 3.3125 42.8738V10.1297C3.3125 9.28632 3.64753 8.47747 4.2439 7.88111C4.84027 7.28474 5.64911 6.94971 6.4925 6.94971H46.5075C47.3509 6.94971 48.1597 7.28474 48.7561 7.88111C49.3525 8.47747 49.6875 9.28632 49.6875 10.1297M46.9613 10.1297C46.9613 10.0698 46.9495 10.0105 46.9265 9.95527C46.9034 9.9 46.8697 9.84982 46.8272 9.80764C46.7847 9.76545 46.7343 9.73209 46.6789 9.70948C46.6234 9.68687 46.5641 9.67546 46.5042 9.67589H6.49581C6.37545 9.67589 6.26002 9.72371 6.17492 9.80881C6.08981 9.89392 6.042 10.0093 6.042 10.1297V42.8638C6.042 42.9842 6.08981 43.0996 6.17492 43.1847C6.26002 43.2698 6.37545 43.3176 6.49581 43.3176H46.5042C46.5641 43.3181 46.6234 43.3067 46.6789 43.2841C46.7343 43.2614 46.7847 43.2281 46.8272 43.1859C46.8697 43.1437 46.9034 43.0935 46.9265 43.0383C46.9495 42.983 46.9613 42.9237 46.9613 42.8638V10.1297Z" fill="#8A38F5"/>
</svg>
