<svg width="24" height="18" viewBox="0 0 24 18" fill="none" xmlns="http://www.w3.org/2000/svg">
<path d="M2.33333 18C1.69167 18 1.14256 17.7799 0.686 17.3396C0.229444 16.8994 0.000777778 16.3695 0 15.75V2.25C0 1.63125 0.228667 1.10175 0.686 0.6615C1.14333 0.22125 1.69244 0.00075 2.33333 0H21C21.6417 0 22.1912 0.2205 22.6485 0.6615C23.1058 1.1025 23.3341 1.632 23.3333 2.25V15.75C23.3333 16.3687 23.1051 16.8986 22.6485 17.3396C22.1919 17.7806 21.6424 18.0007 21 18H2.33333ZM11.6667 10.125L2.33333 4.5V15.75H21V4.5L11.6667 10.125ZM11.6667 7.875L21 2.25H2.33333L11.6667 7.875ZM2.33333 4.5V2.25V15.75V4.5Z" fill="white"/>
</svg>
