<svg width="26" height="26" viewBox="0 0 26 26" fill="none" xmlns="http://www.w3.org/2000/svg">
<path d="M19.9062 0H6.09375C2.72826 0 0 2.72826 0 6.09375V19.9062C0 23.2717 2.72826 26 6.09375 26H19.9062C23.2717 26 26 23.2717 26 19.9062V6.09375C26 2.72826 23.2717 0 19.9062 0Z" fill="#242938"/>
<path d="M13.0001 3.04688C7.39162 3.04688 2.84375 7.59383 2.84375 13.2032C2.84375 17.6906 5.75382 21.4975 9.7893 22.8405C10.2968 22.9345 10.4832 22.6202 10.4832 22.352C10.4832 22.1098 10.4737 21.3097 10.4694 20.4611C7.6439 21.0754 7.04773 19.2628 7.04773 19.2628C6.58562 18.0888 5.91998 17.7767 5.91998 17.7767C4.9985 17.1463 5.98945 17.1593 5.98945 17.1593C7.00934 17.2309 7.5464 18.2059 7.5464 18.2059C8.45223 19.7586 9.92235 19.3097 10.5019 19.0502C10.5931 18.3937 10.8562 17.9457 11.1467 17.6921C8.89088 17.4352 6.5195 16.5643 6.5195 12.6728C6.5195 11.5639 6.9162 10.6579 7.5659 9.94663C7.46038 9.69079 7.11273 8.6578 7.66421 7.25888C7.66421 7.25888 8.51713 6.98598 10.458 8.29989C11.2682 8.07493 12.1369 7.96209 13.0001 7.95823C13.8632 7.96209 14.7328 8.07493 15.5443 8.29999C17.4829 6.98588 18.3346 7.25898 18.3346 7.25898C18.8874 8.6578 18.5396 9.69089 18.4341 9.94663C19.0853 10.6579 19.4794 11.5639 19.4794 12.6728C19.4794 16.5737 17.1034 17.4326 14.8418 17.684C15.2061 17.9992 15.5307 18.6172 15.5307 19.5648C15.5307 20.9237 15.519 22.0174 15.519 22.352C15.519 22.6222 15.7018 22.9389 16.2166 22.8392C20.2498 21.4947 23.1562 17.689 23.1562 13.2032C23.1562 7.59393 18.609 3.04688 13.0001 3.04688ZM6.64767 17.5148C6.62533 17.5652 6.54591 17.5804 6.47359 17.5457C6.39986 17.5126 6.35852 17.4438 6.38239 17.3932C6.40423 17.3412 6.48385 17.3268 6.55728 17.3616C6.63112 17.3947 6.67316 17.4642 6.64767 17.5148ZM7.14726 17.9605C7.09881 18.0055 7.00406 17.9846 6.93987 17.9136C6.87345 17.8428 6.86095 17.7481 6.91011 17.7025C6.95998 17.6577 7.05189 17.6787 7.11841 17.7495C7.18484 17.8212 7.19784 17.9151 7.14726 17.9605ZM7.48993 18.5309C7.42767 18.5742 7.32591 18.5336 7.26304 18.4432C7.20078 18.353 7.20078 18.2447 7.26436 18.2012C7.32743 18.1579 7.42767 18.1969 7.49145 18.2865C7.55351 18.3783 7.55351 18.4867 7.48993 18.5309ZM8.06955 19.1915C8.01389 19.2528 7.89537 19.2363 7.80853 19.1526C7.71977 19.0707 7.69498 18.9545 7.75084 18.8931C7.80721 18.8315 7.92645 18.8489 8.01389 18.932C8.10205 19.0136 8.12896 19.1307 8.06955 19.1915ZM8.81867 19.4144C8.79409 19.494 8.67994 19.5302 8.56487 19.4963C8.4501 19.4615 8.37484 19.3684 8.3981 19.2879C8.42197 19.2079 8.53663 19.1702 8.65252 19.2064C8.76728 19.241 8.84254 19.3335 8.81867 19.4144ZM9.67119 19.509C9.67403 19.5927 9.57653 19.6622 9.45577 19.6637C9.3343 19.6665 9.23609 19.5986 9.23477 19.5163C9.23477 19.4317 9.33014 19.3629 9.45151 19.3609C9.57237 19.3585 9.67119 19.4258 9.67119 19.509ZM10.5087 19.4769C10.5232 19.5586 10.4393 19.6426 10.3194 19.6649C10.2014 19.6865 10.0923 19.636 10.0773 19.5549C10.0627 19.4712 10.1481 19.3873 10.2658 19.3655C10.386 19.3447 10.4934 19.3939 10.5087 19.4769Z" fill="white"/>
</svg>
