<svg width="26" height="26" viewBox="0 0 26 26" fill="none" xmlns="http://www.w3.org/2000/svg">
<path d="M2.16667 13C2.16667 8.95049 2.16667 6.92466 3.03767 5.41666C3.60814 4.42861 4.42862 3.60813 5.41667 3.03766C6.92467 2.16666 8.9505 2.16666 13 2.16666C17.0495 2.16666 19.0753 2.16666 20.5833 3.03766C21.5714 3.60813 22.3919 4.42861 22.9623 5.41666C23.8333 6.92466 23.8333 8.95049 23.8333 13C23.8333 17.0495 23.8333 19.0753 22.9623 20.5833C22.3919 21.5714 21.5714 22.3918 20.5833 22.9623C19.0753 23.8333 17.0506 23.8333 13 23.8333C8.94942 23.8333 6.92467 23.8333 5.41667 22.9623C4.42862 22.3918 3.60814 21.5714 3.03767 20.5833C2.16667 19.0753 2.16667 17.0506 2.16667 13Z" stroke="white" stroke-width="2"/>
<path d="M19.2292 6.77081H19.2335V6.77515H19.2292V6.77081ZM17.875 13C17.875 14.2929 17.3614 15.5329 16.4471 16.4471C15.5329 17.3614 14.2929 17.875 13 17.875C11.7071 17.875 10.4671 17.3614 9.55285 16.4471C8.63862 15.5329 8.125 14.2929 8.125 13C8.125 11.707 8.63862 10.4671 9.55285 9.55283C10.4671 8.63859 11.7071 8.12498 13 8.12498C14.2929 8.12498 15.5329 8.63859 16.4471 9.55283C17.3614 10.4671 17.875 11.707 17.875 13Z" stroke="white" stroke-width="2" stroke-linejoin="round"/>
</svg>
