<svg width="28" height="27" viewBox="0 0 28 27" fill="none" xmlns="http://www.w3.org/2000/svg">
<path d="M4.66666 22.5C4.02499 22.5 3.47588 22.2799 3.01933 21.8396C2.56277 21.3994 2.33411 20.8695 2.33333 20.25V6.75C2.33333 6.13125 2.56199 5.60175 3.01933 5.1615C3.47666 4.72125 4.02577 4.50075 4.66666 4.5H23.3333C23.975 4.5 24.5245 4.7205 24.9818 5.1615C25.4392 5.6025 25.6674 6.132 25.6667 6.75V20.25C25.6667 20.8687 25.4384 21.3986 24.9818 21.8396C24.5253 22.2806 23.9758 22.5007 23.3333 22.5H4.66666ZM14 14.625L4.66666 9V20.25H23.3333V9L14 14.625ZM14 12.375L23.3333 6.75H4.66666L14 12.375ZM4.66666 9V6.75V20.25V9Z" fill="#8A38F5"/>
</svg>
