<svg width="48" height="48" viewBox="0 0 48 48" fill="none" xmlns="http://www.w3.org/2000/svg">
<path d="M42.5 11C42.5 15.418 34.217 19 24 19C13.783 19 5.5 15.418 5.5 11M43 24.205C43 28.51 34.493 32 24 32C13.507 32 5 28.51 5 24.205M11.5 24C11.6326 24 11.7598 23.9473 11.8536 23.8536C11.9473 23.7598 12 23.6326 12 23.5C12 23.3674 11.9473 23.2402 11.8536 23.1464C11.7598 23.0527 11.6326 23 11.5 23C11.3674 23 11.2402 23.0527 11.1464 23.1464C11.0527 23.2402 11 23.3674 11 23.5C11 23.6326 11.0527 23.7598 11.1464 23.8536C11.2402 23.9473 11.3674 24 11.5 24Z" stroke="#8A38F5" stroke-width="2" stroke-linecap="round" stroke-linejoin="round"/>
<path d="M5.5 11C5.5 6.582 13.783 3 24 3C34.217 3 42.5 6.582 42.5 11C42.5 11 43 16 43 24C43 32 42.5 37 42.5 37C42.5 41.418 34.217 45 24 45C13.783 45 5.5 41.418 5.5 37C5.5 37 5 32 5 24C5 16 5.5 11 5.5 11Z" stroke="#8A38F5" stroke-width="2" stroke-linecap="round" stroke-linejoin="round"/>
<path d="M11.5 37C11.6326 37 11.7598 36.9473 11.8536 36.8536C11.9473 36.7598 12 36.6326 12 36.5C12 36.3674 11.9473 36.2402 11.8536 36.1464C11.7598 36.0527 11.6326 36 11.5 36M11.5 37C11.3674 37 11.2402 36.9473 11.1464 36.8536C11.0527 36.7598 11 36.6326 11 36.5C11 36.3674 11.0527 36.2402 11.1464 36.1464C11.2402 36.0527 11.3674 36 11.5 36M18 25.75C18.1326 25.75 18.2598 25.6973 18.3536 25.6036C18.4473 25.5098 18.5 25.3826 18.5 25.25C18.5 25.1174 18.4473 24.9902 18.3536 24.8964C18.2598 24.8027 18.1326 24.75 18 24.75M18 25.75C17.8674 25.75 17.7402 25.6973 17.6464 25.6036C17.5527 25.5098 17.5 25.3826 17.5 25.25C17.5 25.1174 17.5527 24.9902 17.6464 24.8964C17.7402 24.8027 17.8674 24.75 18 24.75M18 38.75C18.1326 38.75 18.2598 38.6973 18.3536 38.6036C18.4473 38.5098 18.5 38.3826 18.5 38.25C18.5 38.1174 18.4473 37.9902 18.3536 37.8964C18.2598 37.8027 18.1326 37.75 18 37.75M18 38.75C17.8674 38.75 17.7402 38.6973 17.6464 38.6036C17.5527 38.5098 17.5 38.3826 17.5 38.25C17.5 38.1174 17.5527 37.9902 17.6464 37.8964C17.7402 37.8027 17.8674 37.75 18 37.75" stroke="#8A38F5" stroke-width="2" stroke-linecap="round" stroke-linejoin="round"/>
</svg>
