<svg width="61" height="61" viewBox="0 0 61 61" fill="none" xmlns="http://www.w3.org/2000/svg">
<path d="M44.9684 37.0003L49.5625 41.9375H40.0312V45.75H49.5625L44.9684 50.6872L47.6562 53.375L57.1875 43.8438L47.6562 34.3125L44.9684 37.0003ZM24.7812 11.4375C21.675 11.4386 18.6274 12.2831 15.9635 13.8807C13.2996 15.4784 11.1195 17.7693 9.65569 20.509C8.1919 23.2487 7.49939 26.3344 7.65205 29.4369C7.80471 32.5394 8.79681 35.5422 10.5225 38.125L13.6869 36.0091C12.0337 33.5358 11.2544 30.5811 11.4728 27.6142C11.6911 24.6474 12.8947 21.8386 14.8922 19.6341C16.8896 17.4295 19.5665 15.9557 22.4975 15.4467C25.4286 14.9378 28.4456 15.4228 31.0694 16.8249C33.6931 18.2269 35.7731 20.4656 36.979 23.1851C38.1848 25.9046 38.4472 28.9491 37.7246 31.8349C37.002 34.7207 35.3359 37.2823 32.9907 39.1127C30.6456 40.9431 27.7561 41.9373 24.7812 41.9375H3.8125V45.75H24.7812C29.3314 45.75 33.6951 43.9425 36.9125 40.725C40.13 37.5076 41.9375 33.1439 41.9375 28.5938C41.9375 24.0436 40.13 19.6799 36.9125 16.4624C33.6951 13.245 29.3314 11.4375 24.7812 11.4375Z" fill="#8A38F5"/>
</svg>
