<svg width="53" height="42" viewBox="0 0 53 42" fill="none" xmlns="http://www.w3.org/2000/svg">
<path d="M40.8668 25.6009L45.4286 30.5455H35.9643V34.3636H45.4286L40.8668 39.3082L43.5357 42L53 32.4545L43.5357 22.9091L40.8668 25.6009ZM20.8214 0C17.737 0.00114562 14.7108 0.846852 12.0656 2.44688C9.42047 4.04691 7.25564 6.34123 5.80214 9.08502C4.34863 11.8288 3.66099 14.9191 3.81257 18.0262C3.96416 21.1333 4.94929 24.1407 6.66286 26.7273L9.805 24.6082C8.16343 22.1313 7.3896 19.1721 7.60644 16.2008C7.82329 13.2296 9.01836 10.4166 11.0018 8.20877C12.9853 6.00096 15.6433 4.52495 18.5538 4.01522C21.4642 3.50549 24.46 3.99129 27.0654 5.39542C29.6707 6.79956 31.7361 9.04151 32.9334 11.7651C34.1308 14.4887 34.3914 17.5377 33.6739 20.4278C32.9564 23.3179 31.3019 25.8833 28.9732 27.7164C26.6446 29.5495 23.7754 30.5453 20.8214 30.5455H0V34.3636H20.8214C25.3396 34.3636 29.6727 32.5534 32.8675 29.3312C36.0623 26.109 37.8571 21.7387 37.8571 17.1818C37.8571 12.6249 36.0623 8.25465 32.8675 5.03244C29.6727 1.81022 25.3396 0 20.8214 0Z" fill="#8A38F5"/>
</svg>
